<svg width="2031" height="2543" viewBox="0 0 2031 2543" fill="none" xmlns="http://www.w3.org/2000/svg">
<g clip-path="url(#clip0_2_19)">
<path d="M1004.5 2484L325.5 2104.5L59.5 1547.5V492L142.5 383.5L1026 77L1952 419V1024L1918 1707L1712.5 2145L1004.5 2484Z" fill="url(#paint0_linear_2_19)"/>
<g filter="url(#filter0_d_2_19)">
<path d="M1004.5 2484L325.5 2104.5L59.5 1547.5V492L142.5 383.5L1026 77L1952 419V1024L1918 1707L1712.5 2145L1004.5 2484Z" fill="black" fill-opacity="0.2" shape-rendering="crispEdges"/>
</g>
<path d="M518.039 172.123C209.613 282.062 34.0096 347.727 26.0502 354.691C-0.315218 379.066 0.679704 357.676 0.679704 921.299C0.679704 1233.7 2.66955 1467.01 5.65431 1499.85C51.9182 2006.26 413.572 2416.67 913.521 2530.09C1016.99 2553.47 1085.14 2546.5 1238.36 2496.26C1524.4 2402.24 1773.63 2185.84 1909.93 1912.74C1969.63 1792.85 2012.41 1639.14 2025.35 1499.85C2028.33 1467.01 2030.32 1233.7 2030.32 921.299C2030.32 356.681 2031.32 379.066 2004.45 354.193C1989.03 340.265 1036.39 0.00127786 1013.51 0.498836C1005.05 0.498836 782.191 78.1026 518.039 172.123ZM1448.29 307.93L1878.59 461.147L1880.09 948.162C1881.58 1454.58 1880.09 1503.33 1860.69 1599.34C1847.25 1664.01 1811.44 1771.46 1784.08 1828.17L1762.69 1872.94L1762.19 1681.42C1761.69 1492.88 1761.19 1489.4 1750.25 1470.5C1740.8 1453.58 1722.89 1441.64 1604.99 1374.98C1531.37 1332.7 1469.18 1298.37 1467.19 1298.37C1464.71 1298.37 1463.21 1205.35 1463.21 1091.93C1463.21 868.071 1462.72 862.599 1436.35 842.203C1428.89 836.233 1348.3 801.908 1256.77 765.096L1013.01 678.5C969.233 678.5 1056.79 678.5 1013.01 678.5C969.233 678.5 1056.79 678.5 1013.01 678.5L774.231 765.096C682.699 801.908 602.11 836.233 594.648 842.203C570.272 861.106 567.785 875.532 567.785 999.898V1114.31H448.395C337.958 1114.31 327.014 1115.31 309.105 1124.26C296.171 1130.73 285.725 1141.18 279.258 1154.11C269.806 1173.01 269.309 1182.96 268.811 1523.23L268.314 1872.94L246.923 1828.17C219.563 1771.46 183.745 1664.01 170.314 1599.34C150.913 1503.33 149.421 1454.58 150.913 948.659L152.405 461.645L296.669 410.406C694.638 268.133 1013.51 154.712 1015.5 154.712C1016.99 154.712 1211.5 223.361 1448.29 307.93ZM1165.73 888.964L1313.98 947.664V1627.69V2307.23L1275.67 2323.14C1209.51 2351 1139.87 2372.89 1076.69 2385.33L1016.49 2397.76L962.272 2387.32C900.089 2375.38 801.094 2344.53 747.369 2320.16L710.556 2303.25L713.541 2232.11C715.531 2193.31 717.023 1888.36 717.023 1554.57V947.664L862.78 889.461C942.373 857.624 1010.53 831.258 1013.01 830.761C1016 830.761 1084.65 856.629 1165.73 888.964ZM567.785 1738.63C567.785 1999.79 566.79 2213.7 565.795 2213.7C560.323 2213.7 495.156 2157.99 459.836 2123.16L418.547 2082.37V1672.96V1263.55H493.166H567.785V1738.63ZM1573.65 1528.7L1612.45 1549.59V1815.73V2081.88L1569.17 2124.66C1529.38 2163.96 1471.17 2213.7 1465.7 2213.7C1464.21 2213.7 1463.21 2045.56 1463.21 1840.11V1466.52L1499.53 1486.91C1518.93 1498.35 1552.76 1516.76 1573.65 1528.7Z" fill="#F1F1F1"/>
</g>
<defs>
<filter id="filter0_d_2_19" x="55.5" y="77" width="1900.5" height="2415" filterUnits="userSpaceOnUse" color-interpolation-filters="sRGB">
<feFlood flood-opacity="0" result="BackgroundImageFix"/>
<feColorMatrix in="SourceAlpha" type="matrix" values="0 0 0 0 0 0 0 0 0 0 0 0 0 0 0 0 0 0 127 0" result="hardAlpha"/>
<feOffset dy="4"/>
<feGaussianBlur stdDeviation="2"/>
<feComposite in2="hardAlpha" operator="out"/>
<feColorMatrix type="matrix" values="0 0 0 0 0 0 0 0 0 0 0 0 0 0 0 0 0 0 0.25 0"/>
<feBlend mode="normal" in2="BackgroundImageFix" result="effect1_dropShadow_2_19"/>
<feBlend mode="normal" in="SourceGraphic" in2="effect1_dropShadow_2_19" result="shape"/>
</filter>
<linearGradient id="paint0_linear_2_19" x1="1688.65" y1="2000.45" x2="98.0458" y2="880.524" gradientUnits="userSpaceOnUse">
<stop stop-color="#00C8FF"/>
<stop offset="0.3" stop-color="#078BE3"/>
<stop offset="1" stop-color="#1700A2"/>
</linearGradient>
<clipPath id="clip0_2_19">
<rect width="2031" height="2543" fill="white"/>
</clipPath>
</defs>
</svg>
