<svg width="590" height="590" viewBox="0 0 590 590" fill="none" xmlns="http://www.w3.org/2000/svg">
<path d="M533.317 464.4C534.117 466 534.517 467.8 534.517 469.8C534.517 473.4 533.117 476.6 530.317 479.4C527.917 481.8 524.917 483 521.317 483H385.117C379.517 483 374.317 481.6 369.517 478.8C365.117 476 361.917 472.4 359.917 468L307.117 349.2H256.717V466.8C256.717 471.2 255.117 475 251.917 478.2C248.717 481.4 244.917 483 240.517 483H110.917C106.517 483 102.717 481.4 99.5172 478.2C96.3172 475 94.7172 471.2 94.7172 466.8V79.2C94.7172 74.8 96.3172 71 99.5172 67.8C102.717 64.6 106.517 63 110.917 63H344.317C380.317 63 411.717 68.8 438.517 80.4C465.717 92 486.517 108.8 500.917 130.8C515.317 152.8 522.517 178.6 522.517 208.2C522.517 262.6 501.517 302 459.517 326.4L533.317 464.4ZM331.717 238.2C340.517 238.2 347.317 235.4 352.117 229.8C356.917 223.8 359.317 216.4 359.317 207.6C359.317 198.8 356.917 191.2 352.117 184.8C347.717 178 340.917 174.6 331.717 174.6H256.717V238.2H331.717Z" fill="#EC6B00"/>
</svg>
